<?xml version="1.0" encoding="utf-8"?>
<!-- Generator: Adobe Illustrator 27.6.1, SVG Export Plug-In . SVG Version: 6.00 Build 0)  -->
<svg version="1.1" id="Layer_1" xmlns="http://www.w3.org/2000/svg" xmlns:xlink="http://www.w3.org/1999/xlink" x="0px" y="0px"
	 viewBox="0 0 1080 1080" style="enable-background:new 0 0 1080 1080;" xml:space="preserve">
<style type="text/css">
	.st0{fill:#FFFFFF;}
</style>
<g>
	<g id="XMLID_00000140721988767308382290000001920901516591666845_">
		<g>
			<polygon class="st0" points="535.41,760.28 535.41,761.54 425.26,656.03 425.94,655.39 			"/>
			<polygon class="st0" points="535.41,550.55 535.41,760.28 425.94,655.39 			"/>
			<polygon class="st0" points="535.41,320.98 535.41,529.83 426.38,425.42 			"/>
			<polygon class="st0" points="532.99,310.63 419.96,418.9 304.09,307.88 304.09,91.38 			"/>
			<polygon class="st0" points="532.99,540.19 418.66,649.7 305.44,541.25 419.77,431.75 			"/>
			<polygon class="st0" points="532.55,771.46 304.3,990.08 304.3,773.18 419.33,663 			"/>
			<polygon class="st0" points="416.24,428.35 416.46,428.58 416.22,428.36 			"/>
			<polygon class="st0" points="412.93,425.2 304.09,529.43 304.09,320.95 			"/>
			<polygon class="st0" points="412.05,656.03 304.09,759.44 304.09,552.64 			"/>
		</g>
		<g>
		</g>
	</g>
	<g id="XMLID_00000049193745360091167180000009799506139523892358_">
		<g>
			<polygon class="st0" points="543.81,760.28 543.81,761.54 653.95,656.03 653.27,655.39 			"/>
			<polygon class="st0" points="543.81,550.55 543.81,760.28 653.27,655.39 			"/>
			<polygon class="st0" points="543.81,320.98 543.81,529.83 652.84,425.42 			"/>
			<polygon class="st0" points="546.22,310.63 659.26,418.9 775.13,307.88 775.13,91.38 			"/>
			<polygon class="st0" points="546.22,540.19 660.56,649.7 773.78,541.25 659.44,431.75 			"/>
			<polygon class="st0" points="546.66,771.46 774.91,990.08 774.91,773.18 659.88,663 			"/>
			<polygon class="st0" points="662.97,428.35 662.75,428.58 662.99,428.36 			"/>
			<polygon class="st0" points="666.29,425.2 775.13,529.43 775.13,320.95 			"/>
			<polygon class="st0" points="667.16,656.03 775.13,759.44 775.13,552.64 			"/>
		</g>
		<g>
		</g>
	</g>
</g>
</svg>
